EMG
version=1
nRows=13
nColumns=17
inDegrees=no
endheader
time	EMG01_right_gast_med	EMG02_right_glut_max	EMG03_left_gast_med	EMG04_left_glut_max	EMG05_right_glut_med	EMG06_right_bic_fem	EMG07_right_rect_fem	EMG08_right_vast_lat	EMG09_right_vast_med	EMG10_right_tens_fasc_lat	EMG11_left_glut_med	EMG12_left_bic_fem	EMG13_left_rect_fem	EMG14_left_vast_lat	EMG15_left_vast_med	EMG16_left_tens_fasc_lat
      0.00000000	    -32.94669724	   -553.28979492	    -93.37916565	    -55.62025452	   -313.14764404	    -38.15223312	      0.04118252	    -35.36738586	    -74.03186798	    -69.07355499	     -5.13241148	     -7.17627192	     14.67459297	    -13.92621517	    -12.60183144	    -82.73209381
      0.01000000	    -31.41169548	   -261.19284058	    -12.16528320	   -115.21095276	   -409.11373901	    -38.28470993	     28.66846657	    -22.68143654	    -41.99425125	    -53.85094452	    -14.19610214	     -0.40952873	     40.31925583	      4.43016243	    -11.08084965	   -104.27903748
      0.02000000	    -18.37732697	    -76.75688171	    -45.91886139	   -173.16163635	   -295.70581055	    -19.17332458	     25.88577080	    -23.26354980	     -7.40015459	    -54.90333557	    -13.17922401	     -2.15553260	     19.21013069	     -8.50794220	    -64.33889008	    -72.44972229
      0.03000000	    -21.12921143	     90.36595154	    175.93977356	   -165.66925049	    -90.32079315	      3.39832211	     -2.32429171	    -53.70082474	      0.47263992	    -62.28044510	    -17.34237671	     -8.19967842	     13.84620476	    -22.52540207	     -9.21938324	    -15.39118004
      0.04000000	      7.43635845	    217.30543518	   -312.95742798	   -106.03334045	    -31.10594177	    -12.82776451	      9.25424480	    -54.92627335	     -6.05851460	   -238.79023743	     33.81994629	     -4.76983404	     24.71388626	      5.02001858	     96.58476257	      6.42927837
      0.05000000	      9.51249695	    215.23748779	    -19.05179405	    -60.35705185	    -56.25516510	      4.59927368	     -4.34958744	    -38.85298538	     -0.37452936	    -19.54568863	      7.82726097	     -7.55843115	     18.40659332	     -5.39495420	     67.21386719	     65.24080658
      0.06000000	     48.09831238	    163.88362122	     29.58914185	    -19.39050484	    -85.26235199	      1.42506003	      3.36633587	    -20.34865952	     19.13838768	    126.20652771	      1.72331858	    -15.50199890	     21.53953552	     25.18650818	      2.53354454	    200.20048523
      0.07000000	     34.15254211	    157.01881409	     95.80033112	     30.17830658	    -26.47318840	     19.27330208	     -0.12075150	     -6.34661913	     23.29110909	     94.85545349	     -8.61829662	     -9.96208572	     11.47319698	    -11.06333923	    -29.48642159	    345.61532593
      0.08000000	     31.62700272	    159.51763916	    -35.18118286	    124.83744812	    -10.81268692	      6.30767393	      1.17710507	    -14.85862160	     16.45233536	    110.66062927	    -13.63620472	     -4.78597450	      8.95747280	     13.77114582	     14.42525005	    343.93801880
      0.09000000	     23.12849808	    170.08396912	     16.97245026	    177.44039917	     -7.72725964	      0.65520716	     -6.23560095	     -7.36709070	      2.67171240	     79.60080719	    -38.09606934	     28.16624451	     11.27221107	    -19.08595657	     23.76946068	    209.75703430
      0.10000000	    -24.78781319	    191.04885864	     -9.80330849	    201.10339355	    -28.30157471	     -4.63729095	     -2.64359474	     -9.94805431	     -7.13557625	     59.98471832	     27.85676384	    -13.69576454	     12.24912167	    -19.23627853	     45.77911758	     85.23150635
      0.11000000	    -40.68357468	    172.20085144	     15.40846157	    178.75302124	    -62.33689117	    -10.57406807	     -9.57491112	     -3.42939997	     -9.07369328	     68.46054840	     -9.14694309	      5.94682693	     -3.93307662	     12.17938519	     43.09988403	    -18.33910370
      0.12000000	    -10.26585007	    137.61691284	     58.93132782	    106.67886353	    -40.90257263	     -4.53026867	     -3.84520936	     -0.30212402	      3.73017573	     44.86918259	    -20.31871223	     -5.46449614	     -2.51292491	    -24.03339958	     16.36287689	    -80.02784729
